<svg width="1200" height="540" viewBox="0 0 1200 540" fill="none" xmlns="http://www.w3.org/2000/svg" role="img" aria-labelledby="title desc">
  <title id="title">Anonymized frontend UI concept studies</title>
  <desc id="desc">Four anonymized educational UI concept panels covering automotive diagnostics, outdoor response, product gallery, and community access interfaces.</desc>
  <defs>
    <linearGradient id="bg" x1="0" y1="0" x2="1200" y2="540" gradientUnits="userSpaceOnUse">
      <stop stop-color="#0B1020"/>
      <stop offset="0.54" stop-color="#101827"/>
      <stop offset="1" stop-color="#172033"/>
    </linearGradient>
    <linearGradient id="blue" x1="0" y1="0" x2="1" y2="1">
      <stop stop-color="#3657F5"/>
      <stop offset="1" stop-color="#0E9FB7"/>
    </linearGradient>
    <linearGradient id="amber" x1="0" y1="0" x2="1" y2="1">
      <stop stop-color="#F59E0B"/>
      <stop offset="1" stop-color="#FCD34D"/>
    </linearGradient>
    <linearGradient id="green" x1="0" y1="0" x2="1" y2="1">
      <stop stop-color="#12805C"/>
      <stop offset="1" stop-color="#38E2A1"/>
    </linearGradient>
    <linearGradient id="stone" x1="0" y1="0" x2="1" y2="1">
      <stop stop-color="#D8C9AF"/>
      <stop offset="1" stop-color="#FFFFFF"/>
    </linearGradient>
    <filter id="shadow" x="-20%" y="-20%" width="140%" height="140%">
      <feDropShadow dx="0" dy="18" stdDeviation="26" flood-color="#000000" flood-opacity="0.26"/>
    </filter>
  </defs>

  <rect width="1200" height="540" rx="30" fill="url(#bg)"/>
  <path d="M0 92H1200M0 184H1200M0 276H1200M0 368H1200M0 460H1200M110 0V540M220 0V540M330 0V540M440 0V540M550 0V540M660 0V540M770 0V540M880 0V540M990 0V540M1100 0V540" stroke="#FFFFFF" stroke-opacity="0.05"/>
  <circle cx="1035" cy="95" r="190" fill="#3657F5" fill-opacity="0.12"/>
  <circle cx="125" cy="475" r="170" fill="#38E2A1" fill-opacity="0.10"/>

  <text x="56" y="70" fill="#93C5FD" font-family="Inter, Arial, sans-serif" font-size="16" font-weight="800" letter-spacing="4">EDUCATIONAL FRONTEND PRACTICE</text>
  <text x="56" y="124" fill="#F8FAFC" font-family="Inter, Arial, sans-serif" font-size="46" font-weight="900">Anonymized UI concept studies</text>
  <text x="58" y="164" fill="#CBD5E1" font-family="Inter, Arial, sans-serif" font-size="19">Mobile-first layouts, semantic structure, accessibility basics, local SEO patterns, and fast static interfaces.</text>

  <g filter="url(#shadow)">
    <rect x="58" y="230" width="252" height="218" rx="24" fill="#FFFFFF"/>
    <rect x="82" y="254" width="204" height="72" rx="18" fill="url(#amber)"/>
    <text x="104" y="284" fill="#111827" font-family="Inter, Arial" font-size="12" font-weight="900" letter-spacing="2">AUTOMOTIVE</text>
    <text x="104" y="312" fill="#111827" font-family="Inter, Arial" font-size="22" font-weight="900">Diagnostics flow</text>
    <rect x="82" y="350" width="128" height="22" rx="11" fill="#E5E7EB"/>
    <rect x="82" y="386" width="204" height="10" rx="5" fill="#D1D5DB"/>
    <rect x="82" y="410" width="156" height="10" rx="5" fill="#D1D5DB"/>
  </g>

  <g filter="url(#shadow)">
    <rect x="338" y="230" width="252" height="218" rx="24" fill="#FFFFFF"/>
    <rect x="362" y="254" width="204" height="72" rx="18" fill="url(#green)"/>
    <text x="384" y="284" fill="#ECFEFF" font-family="Inter, Arial" font-size="12" font-weight="900" letter-spacing="2">OUTDOOR RESPONSE</text>
    <text x="384" y="312" fill="#FFFFFF" font-family="Inter, Arial" font-size="22" font-weight="900">Urgent action UI</text>
    <rect x="362" y="350" width="92" height="58" rx="14" fill="#DCFCE7"/>
    <rect x="474" y="350" width="92" height="58" rx="14" fill="#E0F2FE"/>
    <rect x="362" y="424" width="204" height="10" rx="5" fill="#D1D5DB"/>
  </g>

  <g filter="url(#shadow)">
    <rect x="618" y="230" width="252" height="218" rx="24" fill="#FFFFFF"/>
    <rect x="642" y="254" width="204" height="72" rx="18" fill="url(#stone)"/>
    <text x="664" y="284" fill="#334155" font-family="Inter, Arial" font-size="12" font-weight="900" letter-spacing="2">PRODUCT GALLERY</text>
    <text x="664" y="312" fill="#111827" font-family="Inter, Arial" font-size="22" font-weight="900">Editorial layout</text>
    <rect x="642" y="350" width="62" height="76" rx="12" fill="#CBD5E1"/>
    <rect x="720" y="350" width="126" height="24" rx="12" fill="#E5E7EB"/>
    <rect x="720" y="392" width="96" height="10" rx="5" fill="#D1D5DB"/>
    <rect x="720" y="416" width="126" height="10" rx="5" fill="#D1D5DB"/>
  </g>

  <g filter="url(#shadow)">
    <rect x="898" y="230" width="252" height="218" rx="24" fill="#FFFFFF"/>
    <rect x="922" y="254" width="204" height="72" rx="18" fill="url(#blue)"/>
    <text x="944" y="284" fill="#ECFEFF" font-family="Inter, Arial" font-size="12" font-weight="900" letter-spacing="2">COMMUNITY ACCESS</text>
    <text x="944" y="312" fill="#FFFFFF" font-family="Inter, Arial" font-size="22" font-weight="900">Accessible paths</text>
    <circle cx="954" cy="374" r="18" fill="#DBEAFE"/>
    <circle cx="1014" cy="374" r="18" fill="#DCFCE7"/>
    <circle cx="1074" cy="374" r="18" fill="#FDE68A"/>
    <rect x="922" y="414" width="204" height="10" rx="5" fill="#D1D5DB"/>
  </g>

  <text x="58" y="500" fill="#CBD5E1" font-family="Inter, Arial" font-size="16" font-weight="700">Anonymized practice visuals only. These concepts demonstrate layout, accessibility, semantic HTML, responsive structure, and UI polish.</text>
</svg>